<mxfile modified="2024-06-02T08:10:08.154Z" host="app.diagrams.net" agent="Mozilla/5.0 (Windows NT 10.0; Win64; x64) AppleWebKit/537.36 (KHTML, like Gecko) Chrome/125.0.0.0 Safari/537.36" etag="tHPKWtmSbVdSrsNAzuYu" version="24.4.11" type="github">
  <diagram id="Ht1M8jgEwFfnCIfOTk4-" name="Page-1">
    <mxGraphModel dx="1674" dy="780" grid="1" gridSize="10" guides="1" tooltips="1" connect="1" arrows="1" fold="1" page="1" pageScale="1" pageWidth="1169" pageHeight="827" math="0" shadow="0">
      <root>
        <mxCell id="0" />
        <mxCell id="1" parent="0" />
        <mxCell id="UEzPUAAOIrF-is8g5C7q-74" value="AWS Cloud" style="points=[[0,0],[0.25,0],[0.5,0],[0.75,0],[1,0],[1,0.25],[1,0.5],[1,0.75],[1,1],[0.75,1],[0.5,1],[0.25,1],[0,1],[0,0.75],[0,0.5],[0,0.25]];outlineConnect=0;gradientColor=none;html=1;whiteSpace=wrap;fontSize=12;fontStyle=0;shape=mxgraph.aws4.group;grIcon=mxgraph.aws4.group_aws_cloud_alt;strokeColor=#232F3E;fillColor=none;verticalAlign=top;align=left;spacingLeft=30;fontColor=#232F3E;dashed=0;labelBackgroundColor=#ffffff;container=1;pointerEvents=0;collapsible=0;recursiveResize=0;" parent="1" vertex="1">
          <mxGeometry x="129" y="90" width="1040" height="710" as="geometry" />
        </mxCell>
        <mxCell id="B8dhtAWKyEaFYcLBXjtr-6" value="" style="rounded=0;whiteSpace=wrap;html=1;labelBackgroundColor=none;dashed=1;container=1;pointerEvents=0;collapsible=0;recursiveResize=0;fillColor=none;strokeColor=#30B3FF;strokeWidth=2;shadow=0;fontStyle=1" parent="UEzPUAAOIrF-is8g5C7q-74" vertex="1">
          <mxGeometry x="131" y="200" width="370" height="430" as="geometry" />
        </mxCell>
        <mxCell id="B8dhtAWKyEaFYcLBXjtr-3" value="VPC" style="sketch=0;outlineConnect=0;gradientColor=none;html=1;whiteSpace=wrap;fontSize=12;fontStyle=0;shape=mxgraph.aws4.group;grIcon=mxgraph.aws4.group_vpc;strokeColor=#65fb67;fillColor=none;verticalAlign=top;align=left;spacingLeft=30;fontColor=#879196;dashed=0;" parent="B8dhtAWKyEaFYcLBXjtr-6" vertex="1">
          <mxGeometry x="-69" y="-40" width="919" height="520" as="geometry" />
        </mxCell>
        <mxCell id="B8dhtAWKyEaFYcLBXjtr-7" value="Public subnet" style="points=[[0,0],[0.25,0],[0.5,0],[0.75,0],[1,0],[1,0.25],[1,0.5],[1,0.75],[1,1],[0.75,1],[0.5,1],[0.25,1],[0,1],[0,0.75],[0,0.5],[0,0.25]];outlineConnect=0;gradientColor=none;html=1;whiteSpace=wrap;fontSize=12;fontStyle=0;container=1;pointerEvents=0;collapsible=0;recursiveResize=0;shape=mxgraph.aws4.group;grIcon=mxgraph.aws4.group_security_group;grStroke=0;strokeColor=#7AA116;fillColor=#F2F6E8;verticalAlign=top;align=left;spacingLeft=30;fontColor=#248814;dashed=0;" parent="B8dhtAWKyEaFYcLBXjtr-6" vertex="1">
          <mxGeometry x="40" y="59" width="135.5" height="130" as="geometry" />
        </mxCell>
        <mxCell id="B8dhtAWKyEaFYcLBXjtr-10" value="&lt;font size=&quot;1&quot; style=&quot;&quot; color=&quot;#2212ff&quot;&gt;&lt;b style=&quot;font-size: 14px;&quot;&gt;ap-northeast-1a&lt;/b&gt;&lt;/font&gt;" style="text;html=1;align=center;verticalAlign=middle;resizable=0;points=[];autosize=1;strokeColor=none;fillColor=none;" parent="B8dhtAWKyEaFYcLBXjtr-6" vertex="1">
          <mxGeometry x="40" y="10" width="130" height="30" as="geometry" />
        </mxCell>
        <mxCell id="B8dhtAWKyEaFYcLBXjtr-11" value="Private subnet" style="points=[[0,0],[0.25,0],[0.5,0],[0.75,0],[1,0],[1,0.25],[1,0.5],[1,0.75],[1,1],[0.75,1],[0.5,1],[0.25,1],[0,1],[0,0.75],[0,0.5],[0,0.25]];outlineConnect=0;gradientColor=none;html=1;whiteSpace=wrap;fontSize=12;fontStyle=0;container=1;pointerEvents=0;collapsible=0;recursiveResize=0;shape=mxgraph.aws4.group;grIcon=mxgraph.aws4.group_security_group;grStroke=0;strokeColor=#00A4A6;fillColor=#E6F6F7;verticalAlign=top;align=left;spacingLeft=30;fontColor=#147EBA;dashed=0;" parent="B8dhtAWKyEaFYcLBXjtr-6" vertex="1">
          <mxGeometry x="40" y="240" width="135.5" height="130" as="geometry" />
        </mxCell>
        <mxCell id="t2vTF-Tw1sM12CkkfAh9-1" value="" style="sketch=0;outlineConnect=0;fontColor=#232F3E;gradientColor=none;fillColor=#8C4FFF;strokeColor=none;dashed=0;verticalLabelPosition=bottom;verticalAlign=top;align=center;html=1;fontSize=12;fontStyle=0;aspect=fixed;pointerEvents=1;shape=mxgraph.aws4.application_load_balancer;movable=1;resizable=1;rotatable=1;deletable=1;editable=1;locked=0;connectable=1;" parent="B8dhtAWKyEaFYcLBXjtr-6" vertex="1">
          <mxGeometry x="310" y="124" width="78" height="78" as="geometry" />
        </mxCell>
        <mxCell id="B8dhtAWKyEaFYcLBXjtr-12" value="Internet&#xa;gateway" style="sketch=0;outlineConnect=0;fontColor=#232F3E;gradientColor=none;strokeColor=#232F3E;fillColor=#ffffff;dashed=0;verticalLabelPosition=bottom;verticalAlign=top;align=center;html=1;fontSize=12;fontStyle=0;aspect=fixed;shape=mxgraph.aws4.resourceIcon;resIcon=mxgraph.aws4.internet_gateway;" parent="B8dhtAWKyEaFYcLBXjtr-6" vertex="1">
          <mxGeometry x="310" y="-60" width="60" height="60" as="geometry" />
        </mxCell>
        <mxCell id="ez7rtUc7u6XMyDAmfCM0-2" value="" style="sketch=0;points=[[0,0,0],[0.25,0,0],[0.5,0,0],[0.75,0,0],[1,0,0],[0,1,0],[0.25,1,0],[0.5,1,0],[0.75,1,0],[1,1,0],[0,0.25,0],[0,0.5,0],[0,0.75,0],[1,0.25,0],[1,0.5,0],[1,0.75,0]];outlineConnect=0;fontColor=#232F3E;fillColor=#8C4FFF;strokeColor=#ffffff;dashed=0;verticalLabelPosition=bottom;verticalAlign=top;align=center;html=1;fontSize=12;fontStyle=0;aspect=fixed;shape=mxgraph.aws4.resourceIcon;resIcon=mxgraph.aws4.route_53;" parent="UEzPUAAOIrF-is8g5C7q-74" vertex="1">
          <mxGeometry x="456" y="30" width="78" height="78" as="geometry" />
        </mxCell>
        <mxCell id="jne9ebhIxS_SRLEHY-Ij-2" value="" style="rounded=0;whiteSpace=wrap;html=1;labelBackgroundColor=none;dashed=1;container=1;pointerEvents=0;collapsible=0;recursiveResize=0;fillColor=none;strokeColor=#30B3FF;strokeWidth=2;shadow=0;fontStyle=1" vertex="1" parent="UEzPUAAOIrF-is8g5C7q-74">
          <mxGeometry x="611" y="200" width="229" height="430" as="geometry" />
        </mxCell>
        <mxCell id="jne9ebhIxS_SRLEHY-Ij-4" value="Public subnet" style="points=[[0,0],[0.25,0],[0.5,0],[0.75,0],[1,0],[1,0.25],[1,0.5],[1,0.75],[1,1],[0.75,1],[0.5,1],[0.25,1],[0,1],[0,0.75],[0,0.5],[0,0.25]];outlineConnect=0;gradientColor=none;html=1;whiteSpace=wrap;fontSize=12;fontStyle=0;container=1;pointerEvents=0;collapsible=0;recursiveResize=0;shape=mxgraph.aws4.group;grIcon=mxgraph.aws4.group_security_group;grStroke=0;strokeColor=#7AA116;fillColor=#F2F6E8;verticalAlign=top;align=left;spacingLeft=30;fontColor=#248814;dashed=0;" vertex="1" parent="jne9ebhIxS_SRLEHY-Ij-2">
          <mxGeometry x="40" y="59" width="135.5" height="130" as="geometry" />
        </mxCell>
        <mxCell id="jne9ebhIxS_SRLEHY-Ij-5" value="&lt;font size=&quot;1&quot; style=&quot;&quot; color=&quot;#2212ff&quot;&gt;&lt;b style=&quot;font-size: 14px;&quot;&gt;ap-northeast-1a&lt;/b&gt;&lt;/font&gt;" style="text;html=1;align=center;verticalAlign=middle;resizable=0;points=[];autosize=1;strokeColor=none;fillColor=none;" vertex="1" parent="jne9ebhIxS_SRLEHY-Ij-2">
          <mxGeometry x="40" y="10" width="130" height="30" as="geometry" />
        </mxCell>
        <mxCell id="jne9ebhIxS_SRLEHY-Ij-6" value="Private subnet" style="points=[[0,0],[0.25,0],[0.5,0],[0.75,0],[1,0],[1,0.25],[1,0.5],[1,0.75],[1,1],[0.75,1],[0.5,1],[0.25,1],[0,1],[0,0.75],[0,0.5],[0,0.25]];outlineConnect=0;gradientColor=none;html=1;whiteSpace=wrap;fontSize=12;fontStyle=0;container=1;pointerEvents=0;collapsible=0;recursiveResize=0;shape=mxgraph.aws4.group;grIcon=mxgraph.aws4.group_security_group;grStroke=0;strokeColor=#00A4A6;fillColor=#E6F6F7;verticalAlign=top;align=left;spacingLeft=30;fontColor=#147EBA;dashed=0;" vertex="1" parent="jne9ebhIxS_SRLEHY-Ij-2">
          <mxGeometry x="40" y="240" width="135.5" height="130" as="geometry" />
        </mxCell>
      </root>
    </mxGraphModel>
  </diagram>
</mxfile>
